# xmcd CD database file
#
# Track frame offsets:
#	150
#	12111
#	25850
#	38810
#	50797
#	62411
#	75403
#	86608
#	103172
#	116455
#	138788
#	165990
#	179802
#	191615
#	234183
#	247071
#
# Disc length: 3423 seconds
#
# Revision: 0
# Processed by: cddbd v1.5.2PL0 Copyright (c) Steve Scherf et al.
# Submitted via: CDex 1.51
#
DISCID=c60d5d10
DTITLE=Various Artist - Funk Elements: Rare Grooves And Jazzy Vibes
DYEAR=1900
DGENRE=Jazz
TTITLE0=Quit Jivin' - Pearly Queen
TTITLE1=Cookie Crumbs - Ray And His Court
TTITLE2=Cabato - "Wild" Bill Davis
TTITLE3=Tito Meets Woody - Tito Puente with Woody Herman
TTITLE4=Abacua - Manteca
TTITLE5=Algo Sabrosa - Paquito Hechevarria
TTITLE6=Latino Loco - Nelson Padron
TTITLE7=Cambia El Paso - Patato Valdez
TTITLE8=Tea For Two Mambo - Jimmy Smith
TTITLE9=Ki Die Pujibo Hari Cahana Tomar - The Bauls Of Bengal
TTITLE10=Jan Pts 1 and 2 - Paul Bascomb
TTITLE11=Mr. Jump - Herbie Fields
TTITLE12=Funky, Funky Horse Pt 2 - Lester Young and The California Playboys
TTITLE13=The Skunk - Dyna Tones
TTITLE14=Charles' Shing A Ling - Charles Hodges
TTITLE15=Bitter Wind - Rene Hall
EXTD=
EXTT0=
EXTT1=
EXTT2=
EXTT3=
EXTT4=
EXTT5=
EXTT6=
EXTT7=
EXTT8=
EXTT9=
EXTT10=
EXTT11=
EXTT12=
EXTT13=
EXTT14=
EXTT15=
PLAYORDER=
